<svg width="159" height="27" viewBox="0 0 159 27" fill="none" xmlns="http://www.w3.org/2000/svg">
<path d="M1.19209e-07 1.15H6.5V26H1.19209e-07V1.15ZM18.05 0.599999C19.5833 0.599999 21 0.799999 22.3 1.2C23.6 1.6 24.7333 2.21667 25.7 3.05C26.6667 3.88333 27.4167 4.95 27.95 6.25C28.4833 7.51667 28.75 9.03333 28.75 10.8V26H22.25V11.95C22.25 9.85 21.7333 8.31667 20.7 7.35C19.7 6.35 18.05 5.85 15.75 5.85C14.0167 5.85 12.45 6.18333 11.05 6.85C9.65 7.51667 8.51667 8.36667 7.65 9.4C6.78333 10.4 6.28333 11.45 6.15 12.55L6.1 10C6.26667 8.83333 6.65 7.7 7.25 6.6C7.85 5.5 8.65 4.5 9.65 3.6C10.6833 2.66667 11.9 1.93333 13.3 1.4C14.7 0.866666 16.2833 0.599999 18.05 0.599999ZM57.318 17.75H63.618C63.3513 19.45 62.6346 20.9667 61.468 22.3C60.3346 23.6333 58.7846 24.6833 56.818 25.45C54.8513 26.2167 52.4513 26.6 49.618 26.6C46.4513 26.6 43.6513 26.1 41.218 25.1C38.7846 24.0667 36.8846 22.5833 35.518 20.65C34.1513 18.7167 33.468 16.3833 33.468 13.65C33.468 10.9167 34.1346 8.58333 35.468 6.65C36.8013 4.68333 38.6513 3.18333 41.018 2.15C43.418 1.11667 46.218 0.599999 49.418 0.599999C52.6846 0.599999 55.4013 1.11667 57.568 2.15C59.7346 3.18333 61.3346 4.75 62.368 6.85C63.4346 8.91667 63.8846 11.5667 63.718 14.8H40.018C40.1846 16.0667 40.6513 17.2167 41.418 18.25C42.218 19.2833 43.2846 20.1 44.618 20.7C45.9846 21.3 47.6013 21.6 49.468 21.6C51.5346 21.6 53.2513 21.25 54.618 20.55C56.018 19.8167 56.918 18.8833 57.318 17.75ZM49.118 5.55C46.718 5.55 44.768 6.08333 43.268 7.15C41.768 8.18333 40.8013 9.46667 40.368 11H57.268C57.1013 9.33333 56.3013 8.01667 54.868 7.05C53.468 6.05 51.5513 5.55 49.118 5.55ZM95.5328 1.15L82.6328 15L73.3328 26H65.3828L78.8328 11.45L87.6328 1.15H95.5328ZM65.3828 1.15H73.3328L82.7328 11.35L96.2328 26H88.2828L78.6328 15.15L65.3828 1.15ZM128.994 26H122.494V1.15H128.994V26ZM122.844 14.05L122.894 15.75C122.827 16.2167 122.661 16.9 122.394 17.8C122.127 18.6667 121.711 19.6 121.144 20.6C120.611 21.6 119.911 22.5667 119.044 23.5C118.177 24.4 117.111 25.15 115.844 25.75C114.577 26.3167 113.077 26.6 111.344 26.6C109.977 26.6 108.627 26.4333 107.294 26.1C105.994 25.7667 104.811 25.2167 103.744 24.45C102.677 23.65 101.827 22.5833 101.194 21.25C100.561 19.9167 100.244 18.2333 100.244 16.2V1.15H106.744V15.1C106.744 16.7 106.994 17.9667 107.494 18.9C108.027 19.8 108.794 20.4333 109.794 20.8C110.794 21.1667 111.977 21.35 113.344 21.35C115.144 21.35 116.694 20.9667 117.994 20.2C119.294 19.4 120.344 18.4333 121.144 17.3C121.977 16.1667 122.544 15.0833 122.844 14.05ZM133.912 17.75H139.912C140.279 18.8833 141.029 19.8167 142.162 20.55C143.329 21.25 144.845 21.6 146.712 21.6C147.979 21.6 148.962 21.4833 149.662 21.25C150.362 21.0167 150.845 20.6833 151.112 20.25C151.379 19.7833 151.512 19.2667 151.512 18.7C151.512 18 151.295 17.4667 150.862 17.1C150.429 16.7 149.762 16.3833 148.862 16.15C147.962 15.9167 146.812 15.7 145.412 15.5C144.012 15.2667 142.662 14.9833 141.362 14.65C140.062 14.3167 138.912 13.8833 137.912 13.35C136.912 12.7833 136.112 12.0833 135.512 11.25C134.945 10.3833 134.662 9.33333 134.662 8.1C134.662 6.9 134.945 5.83333 135.512 4.9C136.112 3.96667 136.929 3.18333 137.962 2.55C139.029 1.91667 140.262 1.43333 141.662 1.1C143.095 0.766666 144.629 0.599999 146.262 0.599999C148.729 0.599999 150.779 0.966666 152.412 1.7C154.045 2.4 155.262 3.4 156.062 4.7C156.895 5.96667 157.312 7.43333 157.312 9.1H151.562C151.295 7.86667 150.762 6.98333 149.962 6.45C149.162 5.88333 147.929 5.6 146.262 5.6C144.629 5.6 143.395 5.85 142.562 6.35C141.729 6.85 141.312 7.53333 141.312 8.4C141.312 9.1 141.562 9.65 142.062 10.05C142.595 10.4167 143.362 10.7167 144.362 10.95C145.395 11.1833 146.679 11.4333 148.212 11.7C149.512 11.9667 150.745 12.2667 151.912 12.6C153.112 12.9333 154.179 13.3667 155.112 13.9C156.045 14.4 156.779 15.0833 157.312 15.95C157.879 16.7833 158.162 17.85 158.162 19.15C158.162 20.75 157.695 22.1 156.762 23.2C155.862 24.3 154.562 25.15 152.862 25.75C151.162 26.3167 149.129 26.6 146.762 26.6C144.662 26.6 142.845 26.3833 141.312 25.95C139.812 25.4833 138.562 24.9 137.562 24.2C136.562 23.4667 135.779 22.7 135.212 21.9C134.679 21.0667 134.312 20.2833 134.112 19.55C133.912 18.8167 133.845 18.2167 133.912 17.75Z" fill="white"/>
</svg>
